<svg width="26" height="27" viewBox="0 0 26 27" fill="none" xmlns="http://www.w3.org/2000/svg">
<path d="M19.5 9.16666C19.5 7.44276 18.8152 5.78946 17.5962 4.57047C16.3772 3.35148 14.7239 2.66666 13 2.66666C11.2761 2.66666 9.62279 3.35148 8.40381 4.57047C7.18482 5.78946 6.5 7.44276 6.5 9.16666C6.5 16.75 3.25 18.9167 3.25 18.9167H22.75C22.75 18.9167 19.5 16.75 19.5 9.16666Z" stroke="white" stroke-width="2" stroke-linecap="round" stroke-linejoin="round"/>
<path d="M14.8733 23.25C14.6829 23.5783 14.4095 23.8509 14.0806 24.0403C13.7517 24.2298 13.3787 24.3295 12.9992 24.3295C12.6196 24.3295 12.2467 24.2298 11.9178 24.0403C11.5888 23.8509 11.3155 23.5783 11.125 23.25" stroke="white" stroke-width="2" stroke-linecap="round" stroke-linejoin="round"/>
</svg>
