<svg width="26" height="27" viewBox="0 0 26 27" fill="none" xmlns="http://www.w3.org/2000/svg">
<path d="M2.16797 3.75H8.66797C9.81724 3.75 10.9194 4.20655 11.7321 5.0192C12.5448 5.83186 13.0013 6.93406 13.0013 8.08333V23.25C13.0013 22.388 12.6589 21.5614 12.0494 20.9519C11.4399 20.3424 10.6133 20 9.7513 20H2.16797V3.75Z" stroke="white" stroke-width="2" stroke-linecap="round" stroke-linejoin="round"/>
<path d="M23.8333 3.75H17.3333C16.1841 3.75 15.0819 4.20655 14.2692 5.0192C13.4565 5.83186 13 6.93406 13 8.08333V23.25C13 22.388 13.3424 21.5614 13.9519 20.9519C14.5614 20.3424 15.388 20 16.25 20H23.8333V3.75Z" stroke="white" stroke-width="2" stroke-linecap="round" stroke-linejoin="round"/>
</svg>
