<svg width="26" height="27" viewBox="0 0 26 27" fill="none" xmlns="http://www.w3.org/2000/svg">
<path d="M15.1654 2.66667H6.4987C5.92406 2.66667 5.37296 2.89494 4.96663 3.30127C4.5603 3.7076 4.33203 4.2587 4.33203 4.83334V22.1667C4.33203 22.7413 4.5603 23.2924 4.96663 23.6987C5.37296 24.1051 5.92406 24.3333 6.4987 24.3333H19.4987C20.0733 24.3333 20.6244 24.1051 21.0308 23.6987C21.4371 23.2924 21.6654 22.7413 21.6654 22.1667V9.16667L15.1654 2.66667Z" stroke="white" stroke-width="2" stroke-linecap="round" stroke-linejoin="round"/>
<path d="M15.168 2.66667V9.16667H21.668" stroke="white" stroke-width="2" stroke-linecap="round" stroke-linejoin="round"/>
<path d="M17.3346 14.5833H8.66797" stroke="white" stroke-width="2" stroke-linecap="round" stroke-linejoin="round"/>
<path d="M17.3346 18.9167H8.66797" stroke="white" stroke-width="2" stroke-linecap="round" stroke-linejoin="round"/>
<path d="M10.8346 10.25H9.7513H8.66797" stroke="white" stroke-width="2" stroke-linecap="round" stroke-linejoin="round"/>
</svg>
