<svg width="20" height="20" viewBox="0 0 20 20" fill="none" xmlns="http://www.w3.org/2000/svg">
<g clip-path="url(#clip0_396_56)">
<path d="M20 1.47059V18.5294C20 18.9194 19.845 19.2935 19.5693 19.5693C19.2935 19.845 18.9194 20 18.5294 20H1.47059C1.08057 20 0.706517 19.845 0.430726 19.5693C0.154937 19.2935 0 18.9194 0 18.5294V1.47059C0 1.08057 0.154937 0.706517 0.430726 0.430726C0.706517 0.154937 1.08057 0 1.47059 0H18.5294C18.9194 0 19.2935 0.154937 19.5693 0.430726C19.845 0.706517 20 1.08057 20 1.47059ZM5.88235 7.64703H2.94118V17.0588H5.88235V7.64703ZM6.14706 4.41177C6.14861 4.18929 6.10632 3.96868 6.02261 3.76255C5.9389 3.55642 5.81541 3.36879 5.65919 3.21039C5.50297 3.05198 5.31708 2.9259 5.11212 2.83933C4.90718 2.75277 4.68718 2.70742 4.4647 2.70588H4.41177C3.95934 2.70588 3.52544 2.88561 3.20552 3.20552C2.88561 3.52544 2.70588 3.95934 2.70588 4.41177C2.70588 4.86419 2.88561 5.29809 3.20552 5.61801C3.52544 5.93792 3.95934 6.11765 4.41177 6.11765C4.63426 6.12312 4.85565 6.0847 5.06328 6.00459C5.27092 5.92446 5.46074 5.80422 5.62189 5.65072C5.78304 5.49721 5.91237 5.31346 6.00248 5.10997C6.09259 4.90646 6.14172 4.6872 6.14706 4.4647V4.41177ZM17.0588 11.3412C17.0588 8.51179 15.2588 7.41179 13.4706 7.41179C12.8851 7.38241 12.3021 7.50717 11.7799 7.77345C11.2576 8.03972 10.8143 8.43834 10.4941 8.92938H10.4118V7.64703H7.64703V17.0588H10.5882V12.053C10.5457 11.5403 10.7072 11.0315 11.0377 10.6372C11.3681 10.2429 11.8407 9.9949 12.353 9.94703H12.4647C13.4 9.94703 14.0941 10.5353 14.0941 12.0177V17.0588H17.0353L17.0588 11.3412Z" fill="white"/>
</g>
<defs>
<clipPath id="clip0_396_56">
<rect width="20" height="20" fill="white"/>
</clipPath>
</defs>
</svg>
