<svg width="26" height="27" viewBox="0 0 26 27" fill="none" xmlns="http://www.w3.org/2000/svg">
<path d="M23.8345 18.83V22.08C23.8357 22.3817 23.7739 22.6804 23.6531 22.9568C23.5322 23.2332 23.3549 23.4814 23.1326 23.6854C22.9103 23.8893 22.6478 24.0446 22.362 24.1413C22.0762 24.2379 21.7733 24.2738 21.4729 24.2467C18.1393 23.8844 14.9371 22.7453 12.1237 20.9208C9.50617 19.2576 7.28697 17.0384 5.62369 14.4208C3.79283 11.5946 2.65345 8.37691 2.29786 5.02834C2.27078 4.72876 2.30639 4.42683 2.4024 4.14176C2.49841 3.8567 2.65272 3.59475 2.85552 3.37259C3.05831 3.15044 3.30514 2.97294 3.5803 2.8514C3.85545 2.72987 4.15289 2.66695 4.45369 2.66667H7.70369C8.22944 2.6615 8.73913 2.84767 9.13776 3.1905C9.5364 3.53332 9.79677 4.0094 9.87036 4.53C10.0075 5.57008 10.2619 6.59129 10.6287 7.57417C10.7744 7.96192 10.806 8.38333 10.7196 8.78846C10.6332 9.19359 10.4325 9.56546 10.1412 9.86L8.76536 11.2358C10.3075 13.948 12.5532 16.1937 15.2654 17.7358L16.6412 16.36C16.9357 16.0687 17.3076 15.868 17.7127 15.7816C18.1179 15.6952 18.5393 15.7267 18.927 15.8725C19.9099 16.2393 20.9311 16.4937 21.9712 16.6308C22.4974 16.7051 22.978 16.9701 23.3216 17.3756C23.6652 17.7811 23.8477 18.2987 23.8345 18.83Z" stroke="white" stroke-width="2" stroke-linecap="round" stroke-linejoin="round"/>
</svg>
