<svg width="26" height="20" viewBox="0 0 26 20" fill="none" xmlns="http://www.w3.org/2000/svg">
<g clip-path="url(#clip0_396_41)">
<path d="M25.2084 2.37333C24.3038 2.77418 23.332 3.04502 22.3104 3.16744C23.3646 2.53669 24.1532 1.54397 24.5292 0.374503C23.5388 0.962764 22.4549 1.37683 21.3245 1.59872C20.5645 0.787122 19.5576 0.249185 18.4605 0.0684217C17.3633 -0.112342 16.2372 0.0741826 15.2568 0.599035C14.2765 1.12389 13.497 1.9577 13.0391 2.97103C12.5812 3.98435 12.4708 5.1205 12.7247 6.20306C10.718 6.10229 8.75483 5.58071 6.96273 4.67214C5.17062 3.76358 3.58957 2.48834 2.32219 0.929192C1.88884 1.67672 1.63966 2.54342 1.63966 3.46645C1.63918 4.29739 1.8438 5.11561 2.23539 5.8485C2.62697 6.58139 3.19339 7.2063 3.88441 7.66777C3.08301 7.64227 2.2993 7.42573 1.5985 7.03617V7.10117C1.59841 8.26662 2.00154 9.39616 2.73948 10.2982C3.47743 11.2002 4.50472 11.8192 5.64706 12.05C4.90363 12.2512 4.1242 12.2808 3.36764 12.1367C3.68995 13.1394 4.31776 14.0164 5.16319 14.6446C6.00862 15.2729 7.02936 15.6211 8.08249 15.6403C6.29474 17.0438 4.08688 17.805 1.81409 17.8017C1.41148 17.8017 1.00922 17.7782 0.609375 17.7313C2.9164 19.2145 5.60193 20.0018 8.34466 19.9987C17.6291 19.9987 22.7048 12.3089 22.7048 5.6397C22.7048 5.42303 22.6994 5.20418 22.6896 4.9875C23.6769 4.27354 24.5291 3.38942 25.2063 2.37658L25.2084 2.37333Z" fill="white"/>
</g>
<defs>
<clipPath id="clip0_396_41">
<rect width="24.7969" height="19.9975" fill="white" transform="translate(0.609375 0.00126076)"/>
</clipPath>
</defs>
</svg>
