<svg width="26" height="27" viewBox="0 0 26 27" fill="none" xmlns="http://www.w3.org/2000/svg">
<path d="M17.332 4.83334H19.4987C20.0733 4.83334 20.6244 5.06162 21.0308 5.46795C21.4371 5.87427 21.6654 6.42537 21.6654 7.00001V22.1667C21.6654 22.7413 21.4371 23.2924 21.0308 23.6987C20.6244 24.1051 20.0733 24.3333 19.4987 24.3333H6.4987C5.92406 24.3333 5.37296 24.1051 4.96663 23.6987C4.5603 23.2924 4.33203 22.7413 4.33203 22.1667V7.00001C4.33203 6.42537 4.5603 5.87427 4.96663 5.46795C5.37296 5.06162 5.92406 4.83334 6.4987 4.83334H8.66536" stroke="white" stroke-width="2" stroke-linecap="round" stroke-linejoin="round"/>
<path d="M16.2513 2.66666H9.7513C9.15299 2.66666 8.66797 3.15168 8.66797 3.74999V5.91666C8.66797 6.51496 9.15299 6.99999 9.7513 6.99999H16.2513C16.8496 6.99999 17.3346 6.51496 17.3346 5.91666V3.74999C17.3346 3.15168 16.8496 2.66666 16.2513 2.66666Z" stroke="white" stroke-width="2" stroke-linecap="round" stroke-linejoin="round"/>
</svg>
