<svg width="20" height="20" viewBox="0 0 20 20" fill="none" xmlns="http://www.w3.org/2000/svg">
<g clip-path="url(#clip0_396_45)">
<path d="M9.99733 6.66512C8.16113 6.66512 6.66262 8.1636 6.66262 9.9998C6.66262 11.836 8.16113 13.3345 9.99733 13.3345C11.8335 13.3345 13.332 11.836 13.332 9.9998C13.332 8.1636 11.8335 6.66512 9.99733 6.66512ZM19.9989 9.9998C19.9989 8.61893 20.0114 7.25053 19.9339 5.8721C19.8563 4.27105 19.4911 2.85011 18.3203 1.67935C17.147 0.506076 15.7286 0.143338 14.1275 0.0657868C12.7466 -0.0117641 11.3782 0.000744097 9.9998 0.000744097C8.61893 0.000744097 7.25053 -0.0117641 5.8721 0.0657868C4.27105 0.143338 2.85011 0.508577 1.67935 1.67935C0.506076 2.85262 0.143338 4.27105 0.0657868 5.8721C-0.0117641 7.253 0.000744097 8.6214 0.000744097 9.9998C0.000744097 11.3782 -0.0117641 12.7491 0.0657868 14.1275C0.143338 15.7286 0.508578 17.1495 1.67935 18.3203C2.85262 19.4935 4.27105 19.8563 5.8721 19.9339C7.253 20.0114 8.6214 19.9989 9.9998 19.9989C11.3807 19.9989 12.7491 20.0114 14.1275 19.9339C15.7286 19.8563 17.1495 19.4911 18.3203 18.3203C19.4935 17.147 19.8563 15.7286 19.9339 14.1275C20.0139 12.7491 19.9989 11.3807 19.9989 9.9998ZM9.99733 15.1307C7.15793 15.1307 4.86644 12.8392 4.86644 9.9998C4.86644 7.16047 7.15793 4.86894 9.99733 4.86894C12.8367 4.86894 15.1282 7.16047 15.1282 9.9998C15.1282 12.8392 12.8367 15.1307 9.99733 15.1307ZM15.3383 5.85709C14.6754 5.85709 14.1401 5.32174 14.1401 4.65881C14.1401 3.99587 14.6754 3.46052 15.3383 3.46052C16.0013 3.46052 16.5366 3.99587 16.5366 4.65881C16.5368 4.81622 16.5059 4.97213 16.4458 5.1176C16.3857 5.26307 16.2974 5.39525 16.1861 5.50656C16.0748 5.61787 15.9426 5.70613 15.7971 5.76628C15.6517 5.82643 15.4957 5.85729 15.3383 5.85709Z" fill="white"/>
</g>
<defs>
<clipPath id="clip0_396_45">
<rect width="20" height="20" fill="white"/>
</clipPath>
</defs>
</svg>
