<svg width="492" height="514" viewBox="0 0 492 514" fill="none" xmlns="http://www.w3.org/2000/svg">
<path d="M201.234 356.402V48.2338" stroke="#263238" stroke-linecap="round" stroke-linejoin="round"/>
<path d="M0.914062 359.458H195.304L490.637 454.782" stroke="#263238" stroke-linecap="round" stroke-linejoin="round"/>
<path d="M89.4311 352.223H76.0052V130.201H103.72L91.7601 87.0323H55.8663L43.9062 130.201H71.6212V352.223H58.1542C54.7108 352.226 51.4058 353.579 48.9493 355.992C46.4927 358.405 45.0805 361.686 45.016 365.128C45.016 365.128 45.016 365.197 45.016 365.224C45.016 365.224 45.016 365.306 45.016 365.334C45.4132 368.43 58.1268 370.923 73.7858 370.923C89.4448 370.923 102.158 368.43 102.556 365.334C102.545 361.858 101.158 358.527 98.6988 356.07C96.2394 353.613 92.9074 352.23 89.4311 352.223Z" fill="white" fill-opacity="0.38"/>
<path d="M268.336 32.9581V294.381L465.164 326.768V0.571411L268.336 32.9581ZM460.053 107.815L360.044 113.487V22.6558L460.053 6.7364V107.815ZM360.044 123.035L460.053 118.446V209.77L360.044 205.098V123.035ZM351.933 204.715L271.638 200.975V127.091L351.865 123.419L351.933 204.715ZM351.933 23.9436V113.98L271.638 118.487V36.7119L351.933 23.9436ZM271.638 209.578L351.865 214.195V303.396L271.638 290.627V209.578ZM359.975 304.683V214.661L459.985 220.415V320.603L359.975 304.683Z" fill="white" fill-opacity="0.34" stroke="white" stroke-linecap="round" stroke-linejoin="round"/>
<g filter="url(#filter0_d_402_3395)">
<path d="M200.454 486.553C287.429 486.553 357.936 464.588 357.936 437.493C357.936 410.398 287.429 388.433 200.454 388.433C113.48 388.433 42.9727 410.398 42.9727 437.493C42.9727 464.588 113.48 486.553 200.454 486.553Z" fill="#22C55E"/>
<path opacity="0.5" d="M200.454 486.553C287.429 486.553 357.936 464.588 357.936 437.493C357.936 410.398 287.429 388.433 200.454 388.433C113.48 388.433 42.9727 410.398 42.9727 437.493C42.9727 464.588 113.48 486.553 200.454 486.553Z" fill="white"/>
<path d="M187.149 221.168C187.149 221.168 151.461 216.935 127.979 235.252C104.498 253.569 84.3038 330.111 84.7696 366.772C85.2354 403.434 98.8668 421.723 133.144 436.738C167.421 451.754 231.277 446.137 266.965 434.862C302.653 423.586 314.394 384.171 313.928 363.019C313.462 341.866 289.981 317.466 281.994 312.328C274.007 307.191 251.47 296.368 240.209 279.448C228.948 262.529 212.494 225.867 187.149 221.168Z" fill="#22C55E"/>
<mask id="mask0_402_3395" style="mask-type:luminance" maskUnits="userSpaceOnUse" x="84" y="220" width="230" height="226">
<path d="M187.149 221.168C187.149 221.168 151.461 216.935 127.979 235.252C104.498 253.569 84.3038 330.111 84.7696 366.772C85.2354 403.434 98.8668 421.723 133.144 436.738C167.421 451.754 231.277 446.137 266.965 434.862C302.653 423.586 314.394 384.171 313.928 363.019C313.462 341.866 289.981 317.466 281.994 312.328C274.007 307.191 251.47 296.368 240.209 279.448C228.948 262.529 212.494 225.867 187.149 221.168Z" fill="white"/>
</mask>
<g mask="url(#mask0_402_3395)">
<path opacity="0.13" d="M273.516 432.327C260.021 430.505 244.019 426.847 231.909 419.49C206.331 403.968 199.946 374.732 190.808 363.772C181.67 352.812 165.23 353.73 157.928 341.852C150.626 329.974 162.49 242.308 141.488 236.828C137.226 235.597 132.813 234.965 128.377 234.951C128.254 235.06 128.103 235.143 127.98 235.252C104.498 253.569 84.3038 330.111 84.7696 366.773C85.2354 403.434 98.867 421.724 133.145 436.739C167.422 451.754 231.278 446.137 266.967 434.862C269.201 434.154 271.388 433.308 273.516 432.327Z" fill="black"/>
</g>
<path d="M187.149 221.168C187.149 221.168 151.461 216.935 127.979 235.252C104.498 253.569 84.3038 330.111 84.7696 366.772C85.2354 403.434 98.8668 421.723 133.144 436.738C167.421 451.754 231.277 446.137 266.965 434.862C302.653 423.586 314.394 384.171 313.928 363.019C313.462 341.866 289.981 317.466 281.994 312.328C274.007 307.191 251.47 296.368 240.209 279.448C228.948 262.529 212.494 225.867 187.149 221.168Z" stroke="#263238" stroke-linecap="round" stroke-linejoin="round"/>
<path d="M173.096 237.718C173.096 237.718 149.806 242.17 145.696 246.28C141.586 250.39 124.461 314.781 124.461 314.781C129.222 313.621 134.217 313.859 138.846 315.466C145.696 318.206 146.381 325.398 147.066 328.823C147.616 332.913 147.959 337.029 148.093 341.153C148.093 341.153 217.319 334.975 232.047 331.563C246.774 328.152 269.187 326.563 269.187 326.563C269.187 326.563 231.321 241.157 225.498 238.074C219.676 234.992 195.358 234.649 191.933 235.334C188.508 236.019 173.096 237.718 173.096 237.718Z" fill="#263238" stroke="#263238" stroke-linecap="round" stroke-linejoin="round"/>
<path d="M150.148 316.835L155.971 269.228" stroke="white" stroke-linecap="round" stroke-linejoin="round"/>
<path d="M154.598 281.901L162.475 271.626" stroke="white" stroke-linecap="round" stroke-linejoin="round"/>
<path d="M178.23 288.066C178.23 288.066 200.493 280.873 215.221 280.873" stroke="white" stroke-linecap="round" stroke-linejoin="round"/>
<path d="M199.247 268.433L197.754 279.845C197.754 279.845 201.521 279.845 201.864 281.558C201.887 282.193 201.778 282.825 201.542 283.415C201.306 284.005 200.949 284.539 200.494 284.983C200.494 284.983 211.111 290.805 212.481 297.655" stroke="white" stroke-linecap="round" stroke-linejoin="round"/>
<path d="M185.879 224.95C185.879 224.95 173.097 229.06 171.261 232.252C169.425 235.444 170.809 257.83 170.809 260.57C170.809 263.31 172.412 258.967 173.782 255.775C175.152 252.583 179.947 247.774 181.536 248.24C183.125 248.706 184.057 250.514 184.057 253.487C184.057 256.46 187.701 260.57 190.907 262.844C194.112 265.118 197.072 267.42 197.072 267.42C197.072 267.42 203.689 257.83 205.292 255.309C206.895 252.788 206.662 247.555 206.881 245.719C207.1 243.883 211.224 250.747 212.142 248.925C213.06 247.103 210.087 245.5 206.881 240.472C203.675 235.444 204.607 230.197 199.812 226.539C195.017 222.881 189.537 224.019 185.879 224.95Z" fill="white"/>
<mask id="mask1_402_3395" style="mask-type:luminance" maskUnits="userSpaceOnUse" x="170" y="224" width="43" height="44">
<path d="M185.879 224.95C185.879 224.95 173.097 229.06 171.261 232.252C169.425 235.444 170.809 257.83 170.809 260.57C170.809 263.31 172.412 258.967 173.782 255.775C175.152 252.583 179.947 247.774 181.536 248.24C183.125 248.706 184.057 250.514 184.057 253.487C184.057 256.46 187.701 260.57 190.907 262.844C194.112 265.118 197.072 267.42 197.072 267.42C197.072 267.42 203.689 257.83 205.292 255.309C206.895 252.788 206.662 247.555 206.881 245.719C207.1 243.883 211.224 250.747 212.142 248.925C213.06 247.103 210.087 245.5 206.881 240.472C203.675 235.444 204.607 230.197 199.812 226.539C195.017 222.881 189.537 224.019 185.879 224.95Z" fill="white"/>
</mask>
<g mask="url(#mask1_402_3395)">
<path d="M171.261 232.238C170.056 234.375 170.248 245.034 170.522 252.788C173.44 249.034 179.454 241.938 182.934 243.28C187.373 244.993 189.071 257.611 189.071 257.611L186.071 224.95H185.879C185.879 224.95 173.097 229.06 171.261 232.238Z" fill="#22C55E"/>
<path opacity="0.5" d="M171.261 232.238C170.056 234.375 170.248 245.034 170.522 252.788C173.44 249.034 179.454 241.938 182.934 243.28C187.373 244.993 189.071 257.611 189.071 257.611L186.071 224.95H185.879C185.879 224.95 173.097 229.06 171.261 232.238Z" fill="white"/>
</g>
<path d="M185.879 224.95C185.879 224.95 173.097 229.06 171.261 232.252C169.425 235.444 170.809 257.83 170.809 260.57C170.809 263.31 172.412 258.967 173.782 255.775C175.152 252.583 179.947 247.774 181.536 248.24C183.125 248.706 184.057 250.514 184.057 253.487C184.057 256.46 187.701 260.57 190.907 262.844C194.112 265.118 197.072 267.42 197.072 267.42C197.072 267.42 203.689 257.83 205.292 255.309C206.895 252.788 206.662 247.555 206.881 245.719C207.1 243.883 211.224 250.747 212.142 248.925C213.06 247.103 210.087 245.5 206.881 240.472C203.675 235.444 204.607 230.197 199.812 226.539C195.017 222.881 189.537 224.019 185.879 224.95Z" stroke="#263238" stroke-linecap="round" stroke-linejoin="round"/>
<path d="M155.628 317.521C155.628 317.521 147.751 306.218 138.161 305.191C128.571 304.163 116.926 312.041 116.583 314.781C116.241 317.521 113.843 332.248 115.556 334.303C117.268 336.358 123.776 338.071 136.448 333.961C149.121 329.851 154.258 324.713 155.628 317.521Z" fill="white"/>
<mask id="mask2_402_3395" style="mask-type:luminance" maskUnits="userSpaceOnUse" x="114" y="305" width="42" height="32">
<path d="M155.628 317.521C155.628 317.521 147.751 306.218 138.161 305.191C128.571 304.163 116.926 312.041 116.583 314.781C116.241 317.521 113.843 332.248 115.556 334.303C117.268 336.358 123.776 338.071 136.448 333.961C149.121 329.851 154.258 324.713 155.628 317.521Z" fill="white"/>
</mask>
<g mask="url(#mask2_402_3395)">
<path d="M123.584 333.947C123.584 333.947 120.844 326.111 122.214 323.385C123.584 320.658 129.064 316.535 132.448 312.425C135.832 308.315 124.461 314.74 123.913 312.425C123.488 310.561 129.927 306.835 132.462 305.451C124.488 306.986 116.857 312.534 116.583 314.74C116.241 317.48 113.843 332.207 115.556 334.262C116.433 335.317 118.611 336.29 122.242 336.413C123.064 335.002 123.584 333.947 123.584 333.947Z" fill="#22C55E"/>
<path opacity="0.5" d="M123.584 333.947C123.584 333.947 120.844 326.111 122.214 323.385C123.584 320.658 129.064 316.535 132.448 312.425C135.832 308.315 124.461 314.74 123.913 312.425C123.488 310.561 129.927 306.835 132.462 305.451C124.488 306.986 116.857 312.534 116.583 314.74C116.241 317.48 113.843 332.207 115.556 334.262C116.433 335.317 118.611 336.29 122.242 336.413C123.064 335.002 123.584 333.947 123.584 333.947Z" fill="white"/>
</g>
<path d="M155.628 317.521C155.628 317.521 147.751 306.218 138.161 305.191C128.571 304.163 116.926 312.041 116.583 314.781C116.241 317.521 113.843 332.248 115.556 334.303C117.268 336.358 123.776 338.071 136.448 333.961C149.121 329.851 154.258 324.713 155.628 317.521Z" stroke="#263238" stroke-linecap="round" stroke-linejoin="round"/>
<path d="M128.911 320.604C128.911 320.604 116.06 325.7 115.553 335.674C115.266 341.154 124.458 343.552 134.048 343.552C143.639 343.552 157.339 331.564 166.244 326.426C175.149 321.289 195.699 309.301 198.096 308.274C200.494 307.246 208.714 309.986 212.139 311.014C215.403 311.713 218.733 312.058 222.071 312.041C222.071 312.041 226.866 319.576 229.264 319.576C231.661 319.576 224.126 308.274 223.099 305.876C222.071 303.479 205.289 297.999 203.234 297.999C201.179 297.999 153.229 309.986 146.036 312.726C138.844 315.466 128.911 320.604 128.911 320.604Z" fill="white"/>
<mask id="mask3_402_3395" style="mask-type:luminance" maskUnits="userSpaceOnUse" x="115" y="297" width="115" height="47">
<path d="M128.911 320.604C128.911 320.604 116.06 325.7 115.553 335.674C115.266 341.154 124.458 343.552 134.048 343.552C143.639 343.552 157.339 331.564 166.244 326.426C175.149 321.289 195.699 309.301 198.096 308.274C200.494 307.246 208.714 309.986 212.139 311.014C215.403 311.713 218.733 312.058 222.071 312.041C222.071 312.041 226.866 319.576 229.264 319.576C231.661 319.576 224.126 308.274 223.099 305.876C222.071 303.479 205.289 297.999 203.234 297.999C201.179 297.999 153.229 309.986 146.036 312.726C138.844 315.466 128.911 320.604 128.911 320.604Z" fill="white"/>
</mask>
<g mask="url(#mask3_402_3395)">
<path d="M155.776 319.179C175.353 309.384 203.233 297.999 203.233 297.999C201.178 297.999 153.228 309.986 146.036 312.726C138.843 315.466 128.911 320.604 128.911 320.604C128.911 320.604 116.06 325.7 115.553 335.674C115.266 341.154 124.458 343.552 134.048 343.552C143.638 343.552 157.338 331.564 166.243 326.426L171.641 323.303C158.557 324.961 141.063 326.522 155.776 319.179Z" fill="#22C55E"/>
<path opacity="0.5" d="M155.776 319.179C175.353 309.384 203.233 297.999 203.233 297.999C201.178 297.999 153.228 309.986 146.036 312.726C138.843 315.466 128.911 320.604 128.911 320.604C128.911 320.604 116.06 325.7 115.553 335.674C115.266 341.154 124.458 343.552 134.048 343.552C143.638 343.552 157.338 331.564 166.243 326.426L171.641 323.303C158.557 324.961 141.063 326.522 155.776 319.179Z" fill="white"/>
</g>
<path d="M128.911 320.604C128.911 320.604 116.06 325.7 115.553 335.674C115.266 341.154 124.458 343.552 134.048 343.552C143.639 343.552 157.339 331.564 166.244 326.426C175.149 321.289 195.699 309.301 198.096 308.274C200.494 307.246 208.714 309.986 212.139 311.014C215.403 311.713 218.733 312.058 222.071 312.041C222.071 312.041 226.866 319.576 229.264 319.576C231.661 319.576 224.126 308.274 223.099 305.876C222.071 303.479 205.289 297.999 203.234 297.999C201.179 297.999 153.229 309.986 146.036 312.726C138.844 315.466 128.911 320.604 128.911 320.604Z" stroke="#263238" stroke-linecap="round" stroke-linejoin="round"/>
<path d="M229.088 244.431L218.648 303.136L293.999 303.478L305.205 247.801C305.298 247.31 305.284 246.804 305.164 246.319C305.043 245.834 304.819 245.38 304.506 244.99C304.194 244.6 303.801 244.281 303.354 244.057C302.907 243.833 302.417 243.708 301.917 243.691L232.595 241.609C231.77 241.582 230.962 241.852 230.318 242.37C229.675 242.887 229.238 243.619 229.088 244.431Z" fill="white" stroke="#263238" stroke-linecap="round" stroke-linejoin="round"/>
<path d="M218.649 303.135L181.961 329.083L265.873 326.686L293.999 303.478L218.649 303.135Z" fill="white"/>
<mask id="mask4_402_3395" style="mask-type:luminance" maskUnits="userSpaceOnUse" x="181" y="303" width="113" height="27">
<path d="M218.649 303.135L181.961 329.083L265.873 326.686L293.999 303.478L218.649 303.135Z" fill="white"/>
</mask>
<g mask="url(#mask4_402_3395)">
<path d="M218.649 303.135L181.961 329.083L265.873 326.686L293.999 303.478L218.649 303.135Z" fill="#22C55E"/>
<path opacity="0.5" d="M218.649 303.135L181.961 329.083L265.873 326.686L293.999 303.478L218.649 303.135Z" fill="white"/>
</g>
<path d="M218.649 303.135L181.961 329.083L265.873 326.686L293.999 303.478L218.649 303.135Z" stroke="#263238" stroke-linecap="round" stroke-linejoin="round"/>
<path d="M246.391 328.824C246.391 328.824 276.53 302.451 306.328 293.546C336.125 284.641 342.29 286.011 341.605 299.369C340.92 312.726 326.535 382.597 316.945 400.407C307.355 418.217 295.368 450.754 295.71 456.919C296.053 463.084 307.698 481.237 317.973 487.745C328.248 494.252 327.22 502.13 320.713 503.5C314.205 504.87 306.67 507.267 284.408 492.882C262.146 478.497 252.898 457.947 254.268 452.809C255.638 447.672 270.023 440.822 275.845 430.547C281.668 420.272 291.258 381.912 291.943 364.444C292.499 353.416 294.811 342.548 298.793 332.249C298.793 332.249 261.118 339.099 250.158 345.949L246.391 328.824Z" fill="white"/>
<mask id="mask5_402_3395" style="mask-type:luminance" maskUnits="userSpaceOnUse" x="246" y="287" width="96" height="218">
<path d="M246.391 328.824C246.391 328.824 276.53 302.451 306.328 293.546C336.125 284.641 342.29 286.011 341.605 299.369C340.92 312.726 326.535 382.597 316.945 400.407C307.355 418.217 295.368 450.754 295.71 456.919C296.053 463.084 307.698 481.237 317.973 487.745C328.248 494.252 327.22 502.13 320.713 503.5C314.205 504.87 306.67 507.267 284.408 492.882C262.146 478.497 252.898 457.947 254.268 452.809C255.638 447.672 270.023 440.822 275.845 430.547C281.668 420.272 291.258 381.912 291.943 364.444C292.499 353.416 294.811 342.548 298.793 332.249C298.793 332.249 261.118 339.099 250.158 345.949L246.391 328.824Z" fill="white"/>
</mask>
<g mask="url(#mask5_402_3395)">
<path d="M246.391 328.824C246.391 328.824 276.53 302.451 306.328 293.546C336.125 284.641 342.29 286.011 341.605 299.369C340.92 312.726 326.535 382.597 316.945 400.407C307.355 418.217 295.368 450.754 295.71 456.919C296.053 463.084 307.698 481.237 317.973 487.745C328.248 494.252 327.22 502.13 320.713 503.5C314.205 504.87 306.67 507.267 284.408 492.882C262.146 478.497 252.898 457.947 254.268 452.809C255.638 447.672 270.023 440.822 275.845 430.547C281.668 420.272 291.258 381.912 291.943 364.444C292.499 353.416 294.811 342.548 298.793 332.249C298.793 332.249 261.118 339.099 250.158 345.949L246.391 328.824Z" fill="#22C55E"/>
<path opacity="0.5" d="M246.391 328.824C246.391 328.824 276.53 302.451 306.328 293.546C336.125 284.641 342.29 286.011 341.605 299.369C340.92 312.726 326.535 382.597 316.945 400.407C307.355 418.217 295.368 450.754 295.71 456.919C296.053 463.084 307.698 481.237 317.973 487.745C328.248 494.252 327.22 502.13 320.713 503.5C314.205 504.87 306.67 507.267 284.408 492.882C262.146 478.497 252.898 457.947 254.268 452.809C255.638 447.672 270.023 440.822 275.845 430.547C281.668 420.272 291.258 381.912 291.943 364.444C292.499 353.416 294.811 342.548 298.793 332.249C298.793 332.249 261.118 339.099 250.158 345.949L246.391 328.824Z" fill="white"/>
</g>
<path d="M246.391 328.824C246.391 328.824 276.53 302.451 306.328 293.546C336.125 284.641 342.29 286.011 341.605 299.369C340.92 312.726 326.535 382.597 316.945 400.407C307.355 418.217 295.368 450.754 295.71 456.919C296.053 463.084 307.698 481.237 317.973 487.745C328.248 494.252 327.22 502.13 320.713 503.5C314.205 504.87 306.67 507.267 284.408 492.882C262.146 478.497 252.898 457.947 254.268 452.809C255.638 447.672 270.023 440.822 275.845 430.547C281.668 420.272 291.258 381.912 291.943 364.444C292.499 353.416 294.811 342.548 298.793 332.249C298.793 332.249 261.118 339.099 250.158 345.949L246.391 328.824Z" stroke="#263238" stroke-linecap="round" stroke-linejoin="round"/>
<path d="M275.845 430.546C275.407 431.313 274.914 432.053 274.393 432.792C281.478 433.46 288.194 436.259 293.655 440.821C295.297 442.247 296.861 443.761 298.341 445.355C303.313 429.893 309.535 414.86 316.945 400.406C326.535 382.596 340.92 312.726 341.605 299.369C342.29 286.011 336.125 284.641 306.328 293.546C276.53 302.451 246.391 328.824 246.391 328.824L250.158 345.949C261.118 339.099 298.793 332.249 298.793 332.249C294.811 342.548 292.499 353.416 291.943 364.443C291.258 381.911 281.668 420.271 275.845 430.546Z" fill="white" stroke="#263238" stroke-linecap="round" stroke-linejoin="round"/>
<path d="M275.845 430.546C275.407 431.313 274.914 432.053 274.393 432.792C281.478 433.46 288.194 436.259 293.655 440.821C295.297 442.247 296.861 443.761 298.341 445.355C304.903 436.533 312.287 408.708 320.617 397.255C342.139 367.677 340.92 312.726 341.605 299.369C342.29 286.011 336.125 284.641 306.328 293.546C276.53 302.451 246.391 328.824 246.391 328.824L250.158 345.949C261.118 339.099 298.793 332.249 298.793 332.249C294.811 342.548 292.499 353.416 291.943 364.443C291.258 381.911 281.668 420.271 275.845 430.546Z" fill="#263238"/>
<mask id="mask6_402_3395" style="mask-type:luminance" maskUnits="userSpaceOnUse" x="246" y="287" width="96" height="159">
<path d="M275.845 430.546C275.407 431.313 274.914 432.053 274.393 432.792C281.478 433.46 288.194 436.259 293.655 440.821C295.297 442.247 296.861 443.761 298.341 445.355C304.903 436.533 312.287 408.708 320.617 397.255C342.139 367.677 340.92 312.726 341.605 299.369C342.29 286.011 336.125 284.641 306.328 293.546C276.53 302.451 246.391 328.824 246.391 328.824L250.158 345.949C261.118 339.099 298.793 332.249 298.793 332.249C294.811 342.548 292.499 353.416 291.943 364.443C291.258 381.911 281.668 420.271 275.845 430.546Z" fill="white"/>
</mask>
<g mask="url(#mask6_402_3395)">
<path opacity="0.53" d="M275.845 430.546C275.407 431.313 274.914 432.053 274.393 432.792C281.478 433.46 288.194 436.259 293.655 440.821C295.297 442.247 296.861 443.761 298.341 445.355C304.903 436.533 312.287 408.708 320.617 397.255C342.139 367.677 340.92 312.726 341.605 299.369C342.29 286.011 336.125 284.641 306.328 293.546C276.53 302.451 246.391 328.824 246.391 328.824L250.158 345.949C261.118 339.099 298.793 332.249 298.793 332.249C294.811 342.548 292.499 353.416 291.943 364.443C291.258 381.911 281.668 420.271 275.845 430.546Z" fill="white"/>
<path opacity="0.14" d="M327.125 297.56C326.591 292.696 273.613 315.123 251.268 324.796C248.172 327.262 246.391 328.823 246.391 328.823L250.158 345.948C261.118 339.098 298.793 332.248 298.793 332.248C294.812 342.547 292.5 353.416 291.943 364.443C291.258 381.911 281.668 420.271 275.846 430.546C275.407 431.313 274.914 432.053 274.393 432.793C278.166 433.197 281.858 434.152 285.354 435.629C293.56 418.12 302.396 397.748 306.575 381.815C314.11 353.045 327.81 303.725 327.125 297.56Z" fill="black"/>
<path d="M298.793 332.248C298.793 332.248 309.068 311.356 317.973 302.793" stroke="#263238" stroke-linecap="round" stroke-linejoin="round"/>
</g>
<path d="M275.845 430.546C275.407 431.313 274.914 432.053 274.393 432.792C281.478 433.46 288.194 436.259 293.655 440.821C295.297 442.247 296.861 443.761 298.341 445.355C304.903 436.533 312.287 408.708 320.617 397.255C342.139 367.677 340.92 312.726 341.605 299.369C342.29 286.011 336.125 284.641 306.328 293.546C276.53 302.451 246.391 328.824 246.391 328.824L250.158 345.949C261.118 339.099 298.793 332.249 298.793 332.249C294.811 342.548 292.499 353.416 291.943 364.443C291.258 381.911 281.668 420.271 275.845 430.546Z" stroke="#263238" stroke-linecap="round" stroke-linejoin="round"/>
<path d="M201.233 356.47C212.266 355.967 223.173 353.915 233.634 350.374C249.129 344.73 220.948 334.4 210.152 340.044C207.136 341.507 204.653 343.878 203.053 346.824C201.454 349.771 200.817 353.144 201.233 356.47Z" fill="#263238" stroke="#263238" stroke-linecap="round" stroke-linejoin="round"/>
<path d="M156.653 334.302C156.653 334.302 145.693 340.467 141.925 347.317C138.158 354.167 154.365 365.579 171.49 364.894C188.615 364.209 220.015 345.605 220.015 345.605C220.015 345.605 220.358 375.745 226.181 386.705C232.003 397.665 258.718 424.379 269.336 431.229C279.953 438.079 315.573 463.767 321.053 467.877C326.533 471.987 336.809 479.522 339.206 479.864C341.604 480.207 366.606 449.724 372.429 439.449C378.251 429.174 383.389 407.597 381.334 402.802C379.279 398.007 375.169 402.117 371.059 405.542C366.949 408.967 329.273 433.969 325.848 435.682C323.978 436.642 322.03 437.444 320.026 438.079C320.026 438.079 289.201 408.625 272.761 386.02C256.321 363.415 254.951 334.302 248.786 323.342C242.621 312.383 233.716 307.588 220.358 308.958C207 310.328 179.258 317.52 156.653 334.302Z" fill="white"/>
<mask id="mask7_402_3395" style="mask-type:luminance" maskUnits="userSpaceOnUse" x="141" y="308" width="241" height="172">
<path d="M156.653 334.302C156.653 334.302 145.693 340.467 141.925 347.317C138.158 354.167 154.365 365.579 171.49 364.894C188.615 364.209 220.015 345.605 220.015 345.605C220.015 345.605 220.358 375.745 226.181 386.705C232.003 397.665 258.718 424.379 269.336 431.229C279.953 438.079 315.573 463.767 321.053 467.877C326.533 471.987 336.809 479.522 339.206 479.864C341.604 480.207 366.606 449.724 372.429 439.449C378.251 429.174 383.389 407.597 381.334 402.802C379.279 398.007 375.169 402.117 371.059 405.542C366.949 408.967 329.273 433.969 325.848 435.682C323.978 436.642 322.03 437.444 320.026 438.079C320.026 438.079 289.201 408.625 272.761 386.02C256.321 363.415 254.951 334.302 248.786 323.342C242.621 312.383 233.716 307.588 220.358 308.958C207 310.328 179.258 317.52 156.653 334.302Z" fill="white"/>
</mask>
<g mask="url(#mask7_402_3395)">
<path d="M301.574 453.74C310.726 460.289 318.686 466.07 321.056 467.851C326.536 471.961 336.811 479.496 339.208 479.838C340.058 479.962 343.757 476.194 348.428 470.838L309.205 445.602L301.574 453.74Z" fill="#22C55E"/>
<path opacity="0.5" d="M301.574 453.74C310.726 460.289 318.686 466.07 321.056 467.851C326.536 471.961 336.811 479.496 339.208 479.838C340.058 479.962 343.757 476.194 348.428 470.838L309.205 445.602L301.574 453.74Z" fill="white"/>
</g>
<path d="M156.653 334.302C156.653 334.302 145.693 340.467 141.925 347.317C138.158 354.167 154.365 365.579 171.49 364.894C188.615 364.209 220.015 345.605 220.015 345.605C220.015 345.605 220.358 375.745 226.181 386.705C232.003 397.665 258.718 424.379 269.336 431.229C279.953 438.079 315.573 463.767 321.053 467.877C326.533 471.987 336.809 479.522 339.206 479.864C341.604 480.207 366.606 449.724 372.429 439.449C378.251 429.174 383.389 407.597 381.334 402.802C379.279 398.007 375.169 402.117 371.059 405.542C366.949 408.967 329.273 433.969 325.848 435.682C323.978 436.642 322.03 437.444 320.026 438.079C320.026 438.079 289.201 408.625 272.761 386.02C256.321 363.415 254.951 334.302 248.786 323.342C242.621 312.383 233.716 307.588 220.358 308.958C207 310.328 179.258 317.52 156.653 334.302Z" stroke="#263238" stroke-linecap="round" stroke-linejoin="round"/>
<path d="M317.903 436.027C310.656 428.958 283.488 392.502 272.761 371.541C257.047 340.826 255.349 330.359 249.183 319.399C243.018 308.439 233.716 307.589 220.413 308.959C207.111 310.329 183.149 312.809 153.831 329.441C153.831 329.441 141.501 336.126 137.747 342.976C133.993 349.826 147.707 367.075 171.545 364.896C188.616 363.335 220.071 345.607 220.071 345.607C220.071 345.607 220.413 375.747 226.236 386.707C232.058 397.667 258.774 424.382 269.391 431.232C276.118 435.575 292.9 447.494 305.683 456.673C308.834 445.206 314.492 438.932 317.903 436.027Z" fill="#263238"/>
<mask id="mask8_402_3395" style="mask-type:luminance" maskUnits="userSpaceOnUse" x="137" y="308" width="181" height="149">
<path d="M317.903 436.027C310.656 428.958 283.488 392.502 272.761 371.541C257.047 340.826 255.349 330.359 249.183 319.399C243.018 308.439 233.716 307.589 220.413 308.959C207.111 310.329 183.149 312.809 153.831 329.441C153.831 329.441 141.501 336.126 137.747 342.976C133.993 349.826 147.707 367.075 171.545 364.896C188.616 363.335 220.071 345.607 220.071 345.607C220.071 345.607 220.413 375.747 226.236 386.707C232.058 397.667 258.774 424.382 269.391 431.232C276.118 435.575 292.9 447.494 305.683 456.673C308.834 445.206 314.492 438.932 317.903 436.027Z" fill="white"/>
</mask>
<g mask="url(#mask8_402_3395)">
<path opacity="0.53" d="M317.903 436.027C310.656 428.958 283.488 392.502 272.761 371.541C257.047 340.826 255.349 330.359 249.183 319.399C243.018 308.439 233.716 307.589 220.413 308.959C207.111 310.329 183.149 312.809 153.831 329.441C153.831 329.441 141.501 336.126 137.747 342.976C133.993 349.826 147.707 367.075 171.545 364.896C188.616 363.335 220.071 345.607 220.071 345.607C220.071 345.607 220.413 375.747 226.236 386.707C232.058 397.667 258.774 424.382 269.391 431.232C276.118 435.575 292.9 447.494 305.683 456.673C308.834 445.206 314.492 438.932 317.903 436.027Z" fill="white"/>
<path opacity="0.14" d="M249.035 387.295C238.759 361.265 244.925 309.205 216.154 316.055C195.193 321.042 156.764 338.77 137.461 348.017C139.749 355.881 152.353 366.649 171.492 364.895C188.562 363.334 220.018 345.606 220.018 345.606C220.018 345.606 220.36 375.746 226.183 386.706C232.005 397.666 258.721 424.381 269.338 431.231C276.065 435.574 292.847 447.493 305.63 456.672C306.73 452.662 308.337 448.808 310.411 445.205C284.901 426.34 254.775 401.831 249.035 387.295Z" fill="black"/>
<path d="M220.016 345.606L218.988 327.796" stroke="#263238" stroke-linecap="round" stroke-linejoin="round"/>
</g>
<path d="M317.903 436.027C310.656 428.958 283.488 392.502 272.761 371.541C257.047 340.826 255.349 330.359 249.183 319.399C243.018 308.439 233.716 307.589 220.413 308.959C207.111 310.329 183.149 312.809 153.831 329.441C153.831 329.441 141.501 336.126 137.747 342.976C133.993 349.826 147.707 367.075 171.545 364.896C188.616 363.335 220.071 345.607 220.071 345.607C220.071 345.607 220.413 375.747 226.236 386.707C232.058 397.667 258.774 424.382 269.391 431.232C276.118 435.575 292.9 447.494 305.683 456.673C308.834 445.206 314.492 438.932 317.903 436.027Z" stroke="#263238" stroke-linecap="round" stroke-linejoin="round"/>
<path d="M321.053 467.879C326.533 471.989 336.808 479.524 339.206 479.867C341.603 480.209 366.606 449.726 372.428 439.451C378.251 429.176 383.388 407.599 381.333 402.804C379.278 398.009 375.168 402.119 371.058 405.544C366.948 408.969 329.273 433.971 325.848 435.684C324.944 436.136 324.122 436.506 323.396 436.821C322.41 438.698 321.204 441.602 322.026 443.561C323.396 446.644 329.219 450.754 329.219 450.754L318.848 466.29L321.053 467.879Z" fill="#263238" stroke="#263238" stroke-linecap="round" stroke-linejoin="round"/>
<path d="M372.428 439.45C378.251 429.175 383.388 407.597 381.333 402.802C380.141 400.062 378.264 400.24 376.086 401.583C377.524 407.981 376.086 420.325 369.003 433.627C362.687 445.492 343.178 466.507 333.383 476.673C335.167 478.015 337.138 479.091 339.233 479.865C341.603 480.207 366.605 449.725 372.428 439.45Z" fill="white"/>
<mask id="mask9_402_3395" style="mask-type:luminance" maskUnits="userSpaceOnUse" x="333" y="400" width="49" height="80">
<path d="M372.428 439.45C378.251 429.175 383.388 407.597 381.333 402.802C380.141 400.062 378.264 400.24 376.086 401.583C377.524 407.981 376.086 420.325 369.003 433.627C362.687 445.492 343.178 466.507 333.383 476.673C335.167 478.015 337.138 479.091 339.233 479.865C341.603 480.207 366.605 449.725 372.428 439.45Z" fill="white"/>
</mask>
<g mask="url(#mask9_402_3395)">
<path d="M339.548 479.77L339.849 479.619L339.932 479.551C340.097 479.457 340.253 479.346 340.397 479.222L340.562 479.085L340.959 478.756L341.178 478.551L341.713 478.057L342.041 477.742L342.494 477.304L342.877 476.92L343.261 476.537L344.233 475.509L344.398 475.345L345.001 474.687L345.247 474.427C345.96 473.646 346.727 472.797 347.521 471.892V471.824L348.371 470.865L342.384 467.015C338.986 470.714 335.822 474.057 333.301 476.674L334.219 477.277L334.356 477.359L335.205 477.893L336.575 478.674L336.959 478.893L337.342 479.099L337.781 479.318L338.068 479.455C338.206 479.523 338.348 479.583 338.493 479.633L338.699 479.715C338.857 479.781 339.022 479.827 339.192 479.852C339.277 479.874 339.367 479.874 339.452 479.852L339.548 479.77Z" fill="#22C55E"/>
<path opacity="0.5" d="M339.548 479.77L339.849 479.619L339.932 479.551C340.097 479.457 340.253 479.346 340.397 479.222L340.562 479.085L340.959 478.756L341.178 478.551L341.713 478.057L342.041 477.742L342.494 477.304L342.877 476.92L343.261 476.537L344.233 475.509L344.398 475.345L345.001 474.687L345.247 474.427C345.96 473.646 346.727 472.797 347.521 471.892V471.824L348.371 470.865L342.384 467.015C338.986 470.714 335.822 474.057 333.301 476.674L334.219 477.277L334.356 477.359L335.205 477.893L336.575 478.674L336.959 478.893L337.342 479.099L337.781 479.318L338.068 479.455C338.206 479.523 338.348 479.583 338.493 479.633L338.699 479.715C338.857 479.781 339.022 479.827 339.192 479.852C339.277 479.874 339.367 479.874 339.452 479.852L339.548 479.77Z" fill="white"/>
</g>
<path d="M372.428 439.45C378.251 429.175 383.388 407.597 381.333 402.802C380.141 400.062 378.264 400.24 376.086 401.583C377.524 407.981 376.086 420.325 369.003 433.627C362.687 445.492 343.178 466.507 333.383 476.673C335.167 478.015 337.138 479.091 339.233 479.865C341.603 480.207 366.605 449.725 372.428 439.45Z" stroke="#263238" stroke-linecap="round" stroke-linejoin="round"/>
<path d="M317.972 487.746C307.697 481.238 296.052 463.085 295.709 456.92C295.694 456.245 295.749 455.57 295.874 454.907C293.828 454.972 291.854 455.676 290.229 456.92C286.012 453.095 281.55 449.548 276.872 446.303C273.104 444.133 268.882 442.871 264.542 442.618C259.569 446.728 254.952 450.016 254.226 452.81C252.856 457.948 262.103 478.498 284.366 492.883C306.628 507.268 314.163 504.871 320.671 503.501C327.178 502.131 328.247 494.253 317.972 487.746Z" fill="#263238" stroke="#263238" stroke-linecap="round" stroke-linejoin="round"/>
<path d="M317.973 487.743C314.569 485.435 311.499 482.669 308.849 479.523C301.78 476.509 292.341 472.673 284.066 467.522C275.161 462.042 277.216 458.617 272.079 453.479C268.133 449.534 260.379 449.027 257.009 449C255.792 450.015 254.85 451.32 254.269 452.794C252.899 457.932 262.146 478.482 284.409 492.867C306.671 507.252 314.206 504.854 320.713 503.484C327.221 502.114 328.248 494.251 317.973 487.743Z" fill="white"/>
<mask id="mask10_402_3395" style="mask-type:luminance" maskUnits="userSpaceOnUse" x="254" y="448" width="72" height="57">
<path d="M317.973 487.743C314.569 485.435 311.499 482.669 308.849 479.523C301.78 476.509 292.341 472.673 284.066 467.522C275.161 462.042 277.216 458.617 272.079 453.479C268.133 449.534 260.379 449.027 257.009 449C255.792 450.015 254.85 451.32 254.269 452.794C252.899 457.932 262.146 478.482 284.409 492.867C306.671 507.252 314.206 504.854 320.713 503.484C327.221 502.114 328.248 494.251 317.973 487.743Z" fill="white"/>
</mask>
<g mask="url(#mask10_402_3395)">
<path d="M317.973 487.743C314.569 485.435 311.499 482.669 308.849 479.523C301.78 476.509 292.341 472.673 284.066 467.522C275.161 462.042 277.216 458.617 272.079 453.479C268.133 449.534 260.379 449.027 257.009 449C255.792 450.015 254.85 451.32 254.269 452.794C252.899 457.932 262.146 478.482 284.409 492.867C306.671 507.252 314.206 504.854 320.713 503.484C327.221 502.114 328.248 494.251 317.973 487.743Z" fill="#22C55E"/>
<path opacity="0.5" d="M317.973 487.743C314.569 485.435 311.499 482.669 308.849 479.523C301.78 476.509 292.341 472.673 284.066 467.522C275.161 462.042 277.216 458.617 272.079 453.479C268.133 449.534 260.379 449.027 257.009 449C255.792 450.015 254.85 451.32 254.269 452.794C252.899 457.932 262.146 478.482 284.409 492.867C306.671 507.252 314.206 504.854 320.713 503.484C327.221 502.114 328.248 494.251 317.973 487.743Z" fill="white"/>
</g>
<path d="M317.973 487.743C314.569 485.435 311.499 482.669 308.849 479.523C301.78 476.509 292.341 472.673 284.066 467.522C275.161 462.042 277.216 458.617 272.079 453.479C268.133 449.534 260.379 449.027 257.009 449C255.792 450.015 254.85 451.32 254.269 452.794C252.899 457.932 262.146 478.482 284.409 492.867C306.671 507.252 314.206 504.854 320.713 503.484C327.221 502.114 328.248 494.251 317.973 487.743Z" stroke="#263238" stroke-linecap="round" stroke-linejoin="round"/>
<path d="M319.687 490.141C310.782 485.004 292.629 481.579 280.984 473.701C269.339 465.824 272.422 458.974 263.859 453.494C262.491 452.471 260.852 451.873 259.147 451.776C257.441 451.679 255.745 452.085 254.269 452.946C253.077 458.289 262.352 478.606 284.409 492.881C306.466 507.157 314.207 504.869 320.714 503.499C325.044 502.581 326.92 498.8 324.687 494.457C323.29 492.733 321.597 491.271 319.687 490.141Z" fill="#263238"/>
<mask id="mask11_402_3395" style="mask-type:luminance" maskUnits="userSpaceOnUse" x="254" y="451" width="72" height="54">
<path d="M319.687 490.141C310.782 485.004 292.629 481.579 280.984 473.701C269.339 465.824 272.422 458.974 263.859 453.494C262.491 452.471 260.852 451.873 259.147 451.776C257.441 451.679 255.745 452.085 254.269 452.946C253.077 458.289 262.352 478.606 284.409 492.881C306.466 507.157 314.207 504.869 320.714 503.499C325.044 502.581 326.92 498.8 324.687 494.457C323.29 492.733 321.597 491.271 319.687 490.141Z" fill="white"/>
</mask>
<g mask="url(#mask11_402_3395)">
<path opacity="0.53" d="M319.687 490.141C310.782 485.004 292.629 481.579 280.984 473.701C269.339 465.824 272.422 458.974 263.859 453.494C262.491 452.471 260.852 451.873 259.147 451.776C257.441 451.679 255.745 452.085 254.269 452.946C253.077 458.289 262.352 478.606 284.409 492.881C306.466 507.157 314.207 504.869 320.714 503.499C325.044 502.581 326.92 498.8 324.687 494.457C323.29 492.733 321.597 491.271 319.687 490.141Z" fill="white"/>
</g>
<path d="M319.687 490.141C310.782 485.004 292.629 481.579 280.984 473.701C269.339 465.824 272.422 458.974 263.859 453.494C262.491 452.471 260.852 451.873 259.147 451.776C257.441 451.679 255.745 452.085 254.269 452.946C253.077 458.289 262.352 478.606 284.409 492.881C306.466 507.157 314.207 504.869 320.714 503.499C325.044 502.581 326.92 498.8 324.687 494.457C323.29 492.733 321.597 491.271 319.687 490.141Z" stroke="#263238" stroke-linecap="round" stroke-linejoin="round"/>
<path d="M149.012 424.627C149.012 424.627 155.588 416.64 156.519 422.75C157.451 428.86 156.053 440.122 151.354 444.341C146.655 448.561 144.312 441.999 144.312 441.999L147.135 438.245C147.135 438.245 149.477 442.944 151.354 435.423C153.231 427.901 147.601 428.847 147.601 428.847L149.012 424.627Z" fill="white" stroke="#263238" stroke-linecap="round" stroke-linejoin="round"/>
<path d="M143.983 454.686C140.093 457.563 127.406 457.563 123.529 454.686C115.309 448.589 116.679 419.134 116.679 419.134H150.737C150.737 419.134 152.217 448.589 143.983 454.686Z" fill="white" stroke="#263238" stroke-linecap="round" stroke-linejoin="round"/>
<path d="M120.402 413.354C120.402 409.655 123.841 409.655 123.841 405.942C123.841 402.229 120.402 402.229 120.402 398.53C120.402 394.831 123.841 394.818 123.841 391.105C123.841 387.392 120.402 387.392 120.402 383.68C120.402 379.967 123.841 379.967 123.841 376.254" stroke="#263238" stroke-linecap="round" stroke-linejoin="round"/>
<path d="M132.172 413.352C132.172 410.612 135.611 410.612 135.611 407.722C135.611 404.831 132.172 404.913 132.172 402.091C132.172 399.269 135.611 399.282 135.611 396.46C135.611 393.638 132.172 393.638 132.172 390.816C132.172 387.993 135.611 388.007 135.611 385.185" stroke="#263238" stroke-linecap="round" stroke-linejoin="round"/>
<path d="M145.117 413.354C145.117 409.655 148.542 409.655 148.542 405.942C148.542 402.229 145.117 402.229 145.117 398.53C145.117 394.831 148.542 394.818 148.542 391.105C148.542 387.392 145.117 387.392 145.117 383.68C145.117 379.967 148.542 379.967 148.542 376.254" stroke="#263238" stroke-linecap="round" stroke-linejoin="round"/>
<path d="M150.761 419.133C150.761 419.996 143.144 420.681 133.732 420.681C124.32 420.681 116.703 419.996 116.703 419.133C116.703 418.27 124.32 417.585 133.732 417.585C143.144 417.585 150.761 418.27 150.761 419.133Z" fill="white" stroke="#263238" stroke-linecap="round" stroke-linejoin="round"/>
<path d="M182.203 207.14C182.203 207.14 183.806 224.443 184.477 229.909C185.149 235.375 186.669 251.075 188.245 256.268C189.82 261.46 198.41 270.488 199.205 268.406C199.999 266.323 204.274 252.199 202.575 243.746C200.876 235.293 200.356 228.073 201.411 225.936C202.465 223.799 206.26 221.401 206.26 221.401C201.84 219.137 197.546 216.636 193.396 213.907C187.341 209.88 183.053 205.317 182.203 207.14Z" fill="white"/>
<mask id="mask12_402_3395" style="mask-type:luminance" maskUnits="userSpaceOnUse" x="182" y="206" width="25" height="63">
<path d="M182.203 207.14C182.203 207.14 183.806 224.443 184.477 229.909C185.149 235.375 186.669 251.075 188.245 256.268C189.82 261.46 198.41 270.488 199.205 268.406C199.999 266.323 204.274 252.199 202.575 243.746C200.876 235.293 200.356 228.073 201.411 225.936C202.465 223.799 206.26 221.401 206.26 221.401C201.84 219.137 197.546 216.636 193.396 213.907C187.341 209.88 183.053 205.317 182.203 207.14Z" fill="white"/>
</mask>
<g mask="url(#mask12_402_3395)">
<path d="M204.184 222.323L202.814 219.665C200.293 218.295 196.786 216.268 193.457 214.034C187.36 209.924 183.072 205.308 182.223 207.184C182.223 207.184 183.826 224.488 184.497 229.954C185.168 235.42 186.689 251.121 188.264 256.313C188.802 257.831 189.544 259.269 190.47 260.587C188.812 250.257 190.607 231.598 190.607 231.598L204.184 222.323Z" fill="#22C55E"/>
<path opacity="0.5" d="M204.184 222.323L202.814 219.665C200.293 218.295 196.786 216.268 193.457 214.034C187.36 209.924 183.072 205.308 182.223 207.184C182.223 207.184 183.826 224.488 184.497 229.954C185.168 235.42 186.689 251.121 188.264 256.313C188.802 257.831 189.544 259.269 190.47 260.587C188.812 250.257 190.607 231.598 190.607 231.598L204.184 222.323Z" fill="white"/>
</g>
<path d="M182.203 207.14C182.203 207.14 183.806 224.443 184.477 229.909C185.149 235.375 186.669 251.075 188.245 256.268C189.82 261.46 198.41 270.488 199.205 268.406C199.999 266.323 204.274 252.199 202.575 243.746C200.876 235.293 200.356 228.073 201.411 225.936C202.465 223.799 206.26 221.401 206.26 221.401C201.84 219.137 197.546 216.636 193.396 213.907C187.341 209.88 183.053 205.317 182.203 207.14Z" stroke="#263238" stroke-linecap="round" stroke-linejoin="round"/>
<path d="M181.573 209.646C181.573 209.646 191.437 217.866 199 220.88C206.562 223.894 218.18 223.703 219.838 219.771C221.495 215.839 216.961 184.699 213.056 176.506C209.152 168.314 204.987 168.177 198.096 167.547C191.205 166.916 177.422 172.533 174.997 179.191C172.572 185.85 175.34 195.275 177.34 200.865C178.398 203.95 179.819 206.898 181.573 209.646Z" fill="white"/>
<mask id="mask13_402_3395" style="mask-type:luminance" maskUnits="userSpaceOnUse" x="174" y="167" width="47" height="56">
<path d="M181.573 209.646C181.573 209.646 191.437 217.866 199 220.88C206.562 223.894 218.18 223.703 219.838 219.771C221.495 215.839 216.961 184.699 213.056 176.506C209.152 168.314 204.987 168.177 198.096 167.547C191.205 166.916 177.422 172.533 174.997 179.191C172.572 185.85 175.34 195.275 177.34 200.865C178.398 203.95 179.819 206.898 181.573 209.646Z" fill="white"/>
</mask>
<g mask="url(#mask13_402_3395)">
<path d="M199.297 209.276C195.804 198.919 194.927 182.616 194.927 178.273C194.927 174.917 203.667 171.231 207.654 169.724C205.037 168.108 201.996 167.902 198.064 167.546C191.214 166.929 177.391 172.533 174.966 179.191C172.541 185.849 175.309 195.275 177.309 200.864C178.366 203.949 179.788 206.897 181.542 209.646C181.542 209.646 191.406 217.866 198.968 220.88C204.209 222.864 209.886 223.408 215.408 222.456C209.997 220.414 201.626 216.195 199.297 209.276Z" fill="#22C55E"/>
<path opacity="0.5" d="M199.297 209.276C195.804 198.919 194.927 182.616 194.927 178.273C194.927 174.917 203.667 171.231 207.654 169.724C205.037 168.108 201.996 167.902 198.064 167.546C191.214 166.929 177.391 172.533 174.966 179.191C172.541 185.849 175.309 195.275 177.309 200.864C178.366 203.949 179.788 206.897 181.542 209.646C181.542 209.646 191.406 217.866 198.968 220.88C204.209 222.864 209.886 223.408 215.408 222.456C209.997 220.414 201.626 216.195 199.297 209.276Z" fill="white"/>
</g>
<path d="M181.573 209.646C181.573 209.646 191.437 217.866 199 220.88C206.562 223.894 218.18 223.703 219.838 219.771C221.495 215.839 216.961 184.699 213.056 176.506C209.152 168.314 204.987 168.177 198.096 167.547C191.205 166.916 177.422 172.533 174.997 179.191C172.572 185.85 175.34 195.275 177.34 200.865C178.398 203.95 179.819 206.898 181.573 209.646Z" stroke="#263238" stroke-linecap="round" stroke-linejoin="round"/>
<path d="M213.796 189.33C213.96 193.275 211.481 196.577 208.316 196.7C205.151 196.824 202.384 193.741 202.233 189.85C202.082 185.959 204.548 182.603 207.713 182.466C210.878 182.329 213.645 185.343 213.796 189.33Z" stroke="#263238" stroke-linecap="round" stroke-linejoin="round"/>
<path d="M221.552 187.795C221.717 191.741 220.443 194.988 218.716 195.056C216.99 195.125 215.456 191.987 215.305 188.042C215.154 184.096 216.428 180.836 218.155 180.767C219.881 180.699 221.402 183.85 221.552 187.795Z" stroke="#263238" stroke-linecap="round" stroke-linejoin="round"/>
<path d="M214.207 187.877C214.207 187.877 225.523 190.028 224.427 192.754C223.331 195.481 215.687 198.426 215.687 198.426" fill="white"/>
<path d="M214.207 187.877C214.207 187.877 225.523 190.028 224.427 192.754C223.331 195.481 215.687 198.426 215.687 198.426" stroke="#263238" stroke-linecap="round" stroke-linejoin="round"/>
<path d="M213.508 186.589C213.508 186.589 213.672 185.219 215.412 186.082" stroke="#263238" stroke-linecap="round" stroke-linejoin="round"/>
<path d="M201.878 190.398L181.301 198.495" stroke="#263238" stroke-linecap="round" stroke-linejoin="round"/>
<path d="M202.152 183.74C202.586 182.76 203.31 181.938 204.226 181.384C205.143 180.83 206.208 180.572 207.276 180.643" stroke="#263238" stroke-width="2" stroke-linecap="round" stroke-linejoin="round"/>
<path d="M215.852 180.74L212.688 181.932" stroke="#263238" stroke-width="2" stroke-linecap="round" stroke-linejoin="round"/>
<path d="M206.07 203.715C206.07 203.715 210.18 202.646 212.509 205.085" stroke="#263238" stroke-linecap="round" stroke-linejoin="round"/>
<path d="M208.711 190.042C208.903 191.412 208.711 192.59 208.15 192.659C207.588 192.727 207.095 191.672 206.903 190.289C206.711 188.905 206.971 187.754 207.478 187.686C207.985 187.617 208.533 188.672 208.711 190.042Z" fill="#263238"/>
<path d="M183.218 198.549C183.218 198.549 181.848 201.289 185.711 201.426C189.575 201.563 192.205 199.686 190.328 197.316C188.451 194.946 185.67 192.727 188.533 189.631C191.397 186.534 196.959 183.931 193.835 180.479C190.712 177.027 179.217 180.164 182.094 177.369C184.971 174.574 198.26 171.656 204.234 172.026C210.207 172.396 221.358 167.765 223.811 161.71C226.263 155.655 222.838 144.462 214.81 145.065C206.782 145.667 200.795 152.778 197.233 153.285C193.671 153.791 186.369 149.832 180.245 153.285C174.121 156.737 173.916 166.656 173.395 167.875C172.874 169.094 164.572 170.903 163.106 179.301C162.556 182.687 162.791 186.154 163.794 189.434C164.796 192.714 166.539 195.721 168.888 198.221C172.326 201.961 173.874 203.385 173.874 203.385L183.218 198.549Z" fill="#263238" stroke="#263238" stroke-linecap="round" stroke-linejoin="round"/>
<path d="M165.791 183.37C165.72 184.644 166.025 185.912 166.668 187.014" stroke="white" stroke-width="0.75" stroke-linecap="round" stroke-linejoin="round"/>
<path d="M200.712 161.683C200.712 161.683 197.725 155.148 205.342 155.148C212.959 155.148 214.055 164.738 206.164 168.217C198.273 171.697 181.107 172.574 171.846 176.67C170.028 177.382 168.411 178.524 167.133 179.999" stroke="white" stroke-width="0.75" stroke-linecap="round" stroke-linejoin="round"/>
<path d="M186.917 184.89C184.177 185.877 180.629 187.247 177.026 188.918C169.395 192.467 171.025 196.001 171.025 196.001" stroke="white" stroke-width="0.75" stroke-linecap="round" stroke-linejoin="round"/>
<path d="M192 183.206C192 183.206 191.329 183.397 190.191 183.767" stroke="white" stroke-width="0.75" stroke-linecap="round" stroke-linejoin="round"/>
<path d="M184.518 201.482C184.518 201.482 180.093 195.097 175.435 197.659C170.777 200.221 174.394 209.332 177.202 212.496C180.011 215.661 185.422 209.756 185.984 208.277" fill="white"/>
<mask id="mask14_402_3395" style="mask-type:luminance" maskUnits="userSpaceOnUse" x="173" y="197" width="13" height="17">
<path d="M184.518 201.482C184.518 201.482 180.093 195.097 175.435 197.659C170.777 200.221 174.394 209.332 177.202 212.496C180.011 215.661 185.422 209.756 185.984 208.277" fill="white"/>
</mask>
<g mask="url(#mask14_402_3395)">
<path d="M184.518 201.482C184.518 201.482 180.093 195.097 175.435 197.659C170.777 200.221 174.394 209.332 177.202 212.496C180.011 215.661 185.422 209.756 185.984 208.277" fill="#22C55E"/>
<path opacity="0.5" d="M184.518 201.482C184.518 201.482 180.093 195.097 175.435 197.659C170.777 200.221 174.394 209.332 177.202 212.496C180.011 215.661 185.422 209.756 185.984 208.277" fill="white"/>
</g>
<path d="M184.518 201.482C184.518 201.482 180.093 195.097 175.435 197.659C170.777 200.221 174.394 209.332 177.202 212.496C180.011 215.661 185.422 209.756 185.984 208.277" stroke="#263238" stroke-linecap="round" stroke-linejoin="round"/>
<path d="M128.638 195.659H30.4363C26.5623 195.659 23.4219 198.799 23.4219 202.673V274.461C23.4219 278.335 26.5623 281.476 30.4363 281.476H128.638C132.512 281.476 135.653 278.335 135.653 274.461V202.673C135.653 198.799 132.512 195.659 128.638 195.659Z" fill="white" stroke="#263238" stroke-linecap="round" stroke-linejoin="round"/>
<path d="M133.516 257.392L199.276 274.517L133.516 242.322" fill="white"/>
<path d="M133.516 257.392L199.276 274.517L133.516 242.322" stroke="#263238" stroke-linecap="round" stroke-linejoin="round"/>
<path d="M58.8921 203.906H32.4922V273.228H58.8921V203.906Z" fill="#22C55E" stroke="#263238" stroke-linecap="round" stroke-linejoin="round"/>
<path d="M129.829 203.906H126.527V273.228H129.829V203.906Z" fill="#22C55E" stroke="#263238" stroke-linecap="round" stroke-linejoin="round"/>
<path d="M129.829 235.595H126.527V241.513H129.829V235.595Z" fill="#263238" stroke="#263238" stroke-linecap="round" stroke-linejoin="round"/>
<path d="M67.1523 205.55H119.144" stroke="#263238" stroke-linecap="round" stroke-linejoin="round"/>
<path d="M67.1523 212.976H119.144" stroke="#263238" stroke-linecap="round" stroke-linejoin="round"/>
<path d="M67.1523 220.415H119.144" stroke="#263238" stroke-linecap="round" stroke-linejoin="round"/>
<path d="M67.1523 227.841H119.144" stroke="#263238" stroke-linecap="round" stroke-linejoin="round"/>
<path d="M67.1523 245.992H119.144" stroke="#263238" stroke-linecap="round" stroke-linejoin="round"/>
<path d="M67.1523 252.596H119.144" stroke="#263238" stroke-linecap="round" stroke-linejoin="round"/>
<path d="M67.1523 259.199H119.144" stroke="#263238" stroke-linecap="round" stroke-linejoin="round"/>
<path d="M67.1523 272.9H119.144" stroke="#263238" stroke-linecap="round" stroke-linejoin="round"/>
<path d="M32.4922 273.215L58.9059 203.906" stroke="#263238" stroke-linecap="round" stroke-linejoin="round"/>
</g>
<path d="M430.381 465.059C443.04 465.059 453.301 460.458 453.301 454.784C453.301 449.109 443.04 444.509 430.381 444.509C417.723 444.509 407.461 449.109 407.461 454.784C407.461 460.458 417.723 465.059 430.381 465.059Z" fill="#6C63FF"/>
<path opacity="0.5" d="M430.381 465.059C443.04 465.059 453.301 460.458 453.301 454.784C453.301 449.109 443.04 444.509 430.381 444.509C417.723 444.509 407.461 449.109 407.461 454.784C407.461 460.458 417.723 465.059 430.381 465.059Z" fill="white"/>
<path d="M403.572 302.741C406.024 303.81 412.025 303.673 412.025 303.673C412.025 303.673 410.737 299.741 410.655 299.563C409.285 296.823 405.175 292.261 401.791 292.713C401.235 292.814 400.706 293.028 400.237 293.342C399.767 293.657 399.368 294.065 399.063 294.54C398.759 295.016 398.555 295.549 398.466 296.107C398.376 296.665 398.403 297.235 398.544 297.782C399.051 300.084 401.476 301.824 403.572 302.741Z" fill="#22C55E"/>
<path d="M482.155 282.315C478.757 281.958 474.716 286.603 473.469 289.398C473.36 289.644 472.099 293.603 472.181 293.603H472.25C471.606 294.33 470.88 295.124 470.209 296.001C468.839 297.631 467.386 299.481 465.907 301.618C464.283 303.893 462.796 306.263 461.454 308.714C459.932 311.454 458.658 314.324 457.646 317.291C457.638 317.327 457.638 317.364 457.646 317.4C457.646 316.4 457.646 313.592 457.646 313.372C457.248 310.358 454.714 304.728 451.344 304.111C450.784 304.035 450.215 304.074 449.672 304.228C449.129 304.381 448.623 304.644 448.186 305.002C447.749 305.359 447.39 305.802 447.132 306.305C446.874 306.807 446.722 307.357 446.686 307.92C446.494 310.317 448.234 312.729 449.933 314.249C451.851 315.962 457.166 317.619 457.591 317.743C456.643 320.787 455.893 323.89 455.344 327.031C455.015 328.867 454.755 330.717 454.495 332.58C454.495 331.703 454.495 330.936 454.495 330.826C454.097 327.798 451.563 322.181 448.206 321.565C447.647 321.487 447.078 321.524 446.534 321.676C445.99 321.827 445.483 322.089 445.044 322.445C444.606 322.801 444.246 323.244 443.986 323.745C443.726 324.247 443.573 324.796 443.535 325.36C443.343 327.771 445.083 330.169 446.782 331.689C448.48 333.21 453.015 334.744 454.221 335.128C454.139 335.84 454.043 336.498 453.947 337.265C453.536 340.69 453.152 344.115 452.659 347.472C452.481 348.65 452.275 349.801 452.07 350.951C452.07 350.184 452.07 349.581 452.07 349.444C451.673 346.417 449.138 340.8 445.768 340.17C445.209 340.093 444.64 340.133 444.096 340.286C443.553 340.439 443.047 340.703 442.61 341.06C442.173 341.417 441.814 341.861 441.556 342.363C441.298 342.865 441.146 343.415 441.11 343.978C440.918 346.389 442.658 348.787 444.357 350.307C446.056 351.828 450.152 353.212 451.577 353.664C451.33 354.842 451.07 356.02 450.782 357.157C450.563 357.925 450.398 358.678 450.138 359.432C449.878 360.185 449.659 360.939 449.412 361.678C448.905 363.048 448.385 364.555 447.85 365.912C447.48 366.871 447.111 367.775 446.754 368.652C446.932 367.474 447.247 365.172 447.247 364.98C447.214 362.295 446.492 359.663 445.151 357.336C445.172 357.039 445.172 356.742 445.151 356.445C445.07 355.887 444.875 355.351 444.578 354.871C444.281 354.391 443.888 353.978 443.424 353.656C442.96 353.335 442.435 353.113 441.881 353.003C441.327 352.894 440.757 352.899 440.206 353.02C436.904 353.897 434.808 359.692 434.644 362.733C434.644 362.925 434.753 364.884 434.849 366.117C434.685 365.405 434.534 364.747 434.356 363.966C434 362.5 433.616 361.048 433.205 359.5C432.972 358.747 432.753 357.993 432.52 357.24C432.287 356.486 431.986 355.705 431.725 354.924C431.068 353.143 430.355 351.362 429.52 349.581C430.808 349.28 435.329 348.129 437.151 346.732C438.973 345.334 440.877 343.074 440.85 340.663C440.863 340.098 440.758 339.537 440.54 339.016C440.323 338.494 439.998 338.025 439.587 337.637C439.176 337.25 438.688 336.953 438.155 336.766C437.622 336.579 437.056 336.506 436.493 336.553C433.082 336.923 430.136 342.334 429.52 345.321C429.52 345.512 429.287 347.705 429.191 348.91C428.712 347.842 428.232 346.787 427.711 345.718C426.191 342.663 424.56 339.622 422.944 336.566C422.437 335.635 421.957 334.703 421.478 333.758C421.93 333.662 427.342 332.388 429.369 330.84C431.177 329.47 433.095 327.182 433.082 324.771C433.083 324.208 432.969 323.652 432.746 323.135C432.523 322.619 432.197 322.154 431.787 321.769C431.378 321.383 430.893 321.086 430.364 320.896C429.835 320.705 429.273 320.625 428.711 320.661C425.314 321.031 422.368 326.442 421.752 329.429C421.752 329.648 421.423 332.813 421.382 333.621C420.313 331.552 419.272 329.511 418.313 327.415C417.02 324.621 415.908 321.748 414.984 318.811C415.19 318.811 420.848 317.441 422.93 315.88C424.739 314.51 426.657 312.222 426.643 309.81C426.644 309.248 426.53 308.692 426.307 308.175C426.084 307.659 425.758 307.193 425.349 306.808C424.939 306.423 424.455 306.126 423.925 305.935C423.396 305.745 422.834 305.665 422.273 305.7C418.875 306.07 415.929 311.482 415.313 314.468C415.313 314.715 414.957 318.113 414.943 318.729C414.943 318.551 414.82 318.387 414.765 318.209C413.919 315.234 413.341 312.189 413.039 309.112C412.847 307.427 412.765 305.783 412.71 304.193C413.792 304.07 418.697 303.413 420.738 302.18C422.779 300.947 424.848 298.96 425.095 296.549C425.161 295.988 425.111 295.42 424.949 294.88C424.786 294.339 424.513 293.838 424.148 293.407C423.783 292.977 423.333 292.626 422.827 292.377C422.32 292.128 421.768 291.986 421.204 291.959C417.779 291.959 414.258 297.015 413.313 299.905C413.313 300.07 412.929 301.727 412.696 302.947C412.696 302.221 412.696 301.481 412.696 300.796C412.696 298.22 412.861 295.85 413.025 293.754C413.135 292.562 413.244 291.494 413.368 290.48C414.354 289.809 418.3 287.014 419.519 285C420.738 282.986 421.683 280.246 420.793 278.013C420.605 277.477 420.305 276.987 419.915 276.575C419.524 276.163 419.05 275.838 418.525 275.622C417.999 275.406 417.434 275.303 416.867 275.321C416.299 275.339 415.742 275.477 415.231 275.725C412.189 277.287 411.395 283.397 411.888 286.411C411.888 286.671 413.08 290.658 413.135 290.631C413.011 291.59 412.874 292.631 412.751 293.754C412.546 295.85 412.326 298.22 412.272 300.823C412.175 303.615 412.239 306.41 412.463 309.194C412.71 312.316 413.233 315.411 414.025 318.441C414.017 318.478 414.017 318.515 414.025 318.551C413.491 317.715 411.902 315.4 411.765 315.236C409.765 312.92 404.559 309.646 401.408 310.975C400.899 311.219 400.446 311.565 400.076 311.992C399.707 312.418 399.43 312.916 399.261 313.455C399.093 313.993 399.037 314.561 399.098 315.122C399.158 315.682 399.334 316.225 399.613 316.715C400.777 318.839 403.558 319.88 405.819 320.209C408.353 320.579 413.71 319.03 414.135 318.907C415.02 321.966 416.105 324.964 417.382 327.881C418.121 329.593 418.916 331.292 419.738 332.977C419.245 332.265 418.806 331.607 418.738 331.607C416.738 329.305 411.518 326.017 408.381 327.346C407.87 327.59 407.415 327.937 407.045 328.364C406.674 328.792 406.396 329.292 406.228 329.832C406.059 330.372 406.004 330.941 406.066 331.503C406.127 332.066 406.305 332.61 406.586 333.1C407.751 335.21 410.532 336.265 412.778 336.594C415.025 336.923 419.628 335.69 420.875 335.347C421.19 335.991 421.505 336.635 421.834 337.279C423.382 340.375 424.944 343.444 426.383 346.499C426.889 347.581 427.342 348.663 427.753 349.746C427.328 349.102 426.958 348.581 426.889 348.499C424.889 346.197 419.67 342.91 416.532 344.238C416.022 344.482 415.567 344.829 415.196 345.256C414.826 345.684 414.548 346.184 414.379 346.724C414.211 347.264 414.156 347.833 414.217 348.395C414.279 348.958 414.456 349.502 414.738 349.992C415.902 352.102 418.683 353.143 420.93 353.472C423.177 353.801 427.369 352.691 428.807 352.294C429.246 353.417 429.698 354.541 430.068 355.65C430.314 356.404 430.602 357.116 430.794 357.897C430.986 358.678 431.219 359.418 431.438 360.171C431.78 361.637 432.15 363.144 432.465 364.569C432.685 365.569 432.876 366.515 433.068 367.474C432.575 366.391 431.561 364.309 431.465 364.144C429.835 361.555 425.177 357.514 421.875 358.363C421.327 358.516 420.818 358.783 420.38 359.147C419.943 359.511 419.587 359.963 419.337 360.475C419.088 360.986 418.949 361.545 418.931 362.113C418.912 362.682 419.015 363.248 419.231 363.775C420.053 366.035 422.642 367.487 424.821 368.159C427.232 368.885 432.547 368.159 433.205 368.159C433.52 369.748 433.822 371.296 434.068 372.762C434.972 377.831 435.52 382.091 435.863 385.092C435.863 385.626 435.972 386.092 436.027 386.544H425.739L429.04 451.071C429.163 453.433 430.188 455.658 431.904 457.287C433.619 458.916 435.895 459.825 438.26 459.825C440.625 459.824 442.898 458.916 444.612 457.286C446.325 455.657 447.347 453.432 447.467 451.071L450.782 386.544H441.192C441.261 386.393 441.329 386.256 441.411 386.105C442.781 383.365 444.549 379.42 446.521 374.611C447.138 373.09 447.782 371.447 448.412 369.761C449.056 369.898 454.317 370.967 456.769 370.405C459.002 369.912 461.687 368.652 462.687 366.46C462.931 365.948 463.066 365.392 463.085 364.826C463.103 364.26 463.005 363.696 462.795 363.17C462.585 362.644 462.269 362.167 461.866 361.769C461.464 361.371 460.983 361.06 460.454 360.856C457.207 359.774 452.234 363.459 450.453 365.912C450.344 366.049 449.371 367.761 448.768 368.844C449.015 368.145 449.275 367.474 449.535 366.761C450.056 365.391 450.522 363.939 451.042 362.405C451.262 361.665 451.494 360.911 451.714 360.144C451.933 359.377 452.125 358.569 452.33 357.774C452.769 355.924 453.125 354.034 453.44 352.116C454.673 352.568 459.084 354.102 461.372 353.938C463.66 353.774 466.496 352.938 467.811 350.924C468.127 350.455 468.342 349.926 468.444 349.371C468.546 348.815 468.532 348.244 468.404 347.694C468.275 347.143 468.035 346.626 467.697 346.172C467.359 345.719 466.932 345.341 466.441 345.06C463.4 343.485 457.961 346.43 455.796 348.527C455.659 348.664 454.276 350.39 453.536 351.349C453.728 350.184 453.906 349.033 454.056 347.869C454.481 344.471 454.796 341.019 455.125 337.594L455.454 334.457C455.892 334.621 461.098 336.553 463.674 336.375C465.948 336.21 468.797 335.375 470.113 333.361C470.428 332.892 470.644 332.363 470.746 331.807C470.848 331.251 470.834 330.681 470.705 330.13C470.577 329.58 470.336 329.062 469.999 328.609C469.661 328.156 469.233 327.777 468.743 327.497C465.701 325.922 460.249 328.867 458.098 330.963C457.933 331.128 455.947 333.607 455.481 334.265C455.714 331.95 455.988 329.648 456.344 327.415C456.804 324.367 457.458 321.351 458.303 318.387C458.509 318.469 463.934 320.51 466.523 320.318C468.797 320.168 471.647 319.332 472.962 317.304C473.278 316.836 473.493 316.307 473.595 315.751C473.697 315.195 473.684 314.624 473.555 314.074C473.426 313.524 473.186 313.006 472.848 312.553C472.51 312.1 472.083 311.721 471.592 311.441C468.551 309.879 463.112 312.811 460.947 314.921C460.783 315.085 458.646 317.756 458.303 318.263C458.303 318.099 458.386 317.907 458.44 317.743C459.374 314.792 460.571 311.931 462.016 309.194C462.783 307.673 463.619 306.262 464.455 304.92C465.427 305.399 469.935 307.564 472.264 307.66C474.593 307.755 477.456 307.235 478.99 305.372C479.358 304.941 479.632 304.44 479.797 303.899C479.962 303.357 480.013 302.788 479.947 302.226C479.882 301.664 479.701 301.121 479.416 300.632C479.131 300.144 478.748 299.719 478.292 299.385C475.442 297.494 469.715 299.768 467.332 301.673C467.208 301.782 465.962 303.043 465.14 303.865L466.29 302.043C467.729 299.892 469.167 298.015 470.4 296.357C471.14 295.412 471.839 294.59 472.483 293.809C473.688 293.809 478.524 293.645 480.634 292.658C482.744 291.672 485.059 289.918 485.566 287.521C485.729 286.953 485.767 286.357 485.679 285.773C485.59 285.189 485.376 284.631 485.053 284.136C484.729 283.642 484.303 283.224 483.802 282.91C483.302 282.595 482.74 282.392 482.155 282.315ZM444.521 373.611C442.466 378.338 440.576 382.201 439.219 384.872L438.48 386.338H438.247C438.178 385.818 438.11 385.242 438.014 384.598C437.603 381.584 436.959 377.296 435.945 372.268C435.616 370.652 435.246 368.926 434.849 367.172C436.449 366.526 438.013 365.794 439.534 364.98C441.6 366.756 443.906 368.232 446.384 369.364C445.727 370.803 445.124 372.255 444.521 373.611Z" fill="#22C55E"/>
<path d="M464.251 304.057C464.251 304.057 465.333 300.07 465.374 299.81C465.799 296.782 464.826 290.699 461.757 289.206C461.239 288.987 460.682 288.877 460.12 288.883C459.558 288.888 459.003 289.009 458.489 289.238C457.975 289.466 457.514 289.798 457.134 290.212C456.753 290.626 456.462 291.113 456.277 291.644C455.455 293.919 456.497 296.7 457.743 298.618C459.168 300.864 464.237 304.057 464.251 304.057Z" fill="#22C55E"/>
<defs>
<filter id="filter0_d_402_3395" x="18.9219" y="144.541" width="367.375" height="368.513" filterUnits="userSpaceOnUse" color-interpolation-filters="sRGB">
<feFlood flood-opacity="0" result="BackgroundImageFix"/>
<feColorMatrix in="SourceAlpha" type="matrix" values="0 0 0 0 0 0 0 0 0 0 0 0 0 0 0 0 0 0 127 0" result="hardAlpha"/>
<feOffset dy="4"/>
<feGaussianBlur stdDeviation="2"/>
<feComposite in2="hardAlpha" operator="out"/>
<feColorMatrix type="matrix" values="0 0 0 0 0.815686 0 0 0 0 0.301961 0 0 0 0 0.160784 0 0 0 0.25 0"/>
<feBlend mode="normal" in2="BackgroundImageFix" result="effect1_dropShadow_402_3395"/>
<feBlend mode="normal" in="SourceGraphic" in2="effect1_dropShadow_402_3395" result="shape"/>
</filter>
</defs>
</svg>
