<svg width="109" height="211" viewBox="0 0 109 211" fill="none" xmlns="http://www.w3.org/2000/svg">
<path d="M63.5807 108.304C62.2422 113.184 61.3618 118.178 60.951 123.221C61.0843 123.476 61.0601 124.433 60.951 124.142C60.951 124.954 59.7392 124.809 59.7392 124.009C59.7392 123.476 59.7392 122.955 59.7392 122.434C56.8307 118.798 52.6014 116.532 49.1718 113.381C46.4203 110.913 44.4174 107.722 43.3913 104.171C40.5556 94.3916 43.2095 84.0424 39.7558 74.287C36.8231 65.8767 31.5515 58.5329 27.0798 50.9589C22.3657 42.9001 18.8998 34.4414 18.5969 25.0011C18.3182 17.73 19.1786 8.15639 24.6561 2.73942C30.4851 -3.00474 37.7199 1.2973 42.1916 6.37495C55.1341 21.2322 61.1207 40.0159 63.5444 59.2116C64.8774 69.8395 66.271 80.528 65.9681 91.2529C65.7424 97.0018 64.9427 102.714 63.5807 108.304Z" fill="#22C55E"/>
<path d="M60.946 127.124C61.6594 117.098 61.5418 107.029 60.5946 97.022C60.5946 97.022 60.5946 96.9614 60.5946 96.9129C60.7521 88.7693 61.4065 80.662 61.0793 72.5184C60.67 63.7043 59.4531 54.9464 57.4438 46.3546C57.4438 46.2577 57.262 46.2819 57.2862 46.3546C58.8686 54.799 59.8124 63.3505 60.1098 71.9367C60.2795 76.5417 60.2431 81.1347 60.0008 85.7397C59.928 87.2303 59.7826 88.733 59.6857 90.2356C56.2942 67.388 48.0283 45.5371 35.4487 26.1652C35.279 25.8986 34.8064 26.1652 34.9761 26.456C43.9488 41.183 50.5953 57.2064 54.6807 73.9605C48.4518 62.4237 39.0479 52.9471 32.0797 41.8587C32.0797 41.8587 31.9343 41.8586 31.9707 41.9192C38.345 54.2801 48.7306 64.0112 55.3109 76.2267C56.4581 81.1872 57.3872 86.184 58.0982 91.2172C59.0283 98.1194 59.5301 105.073 59.6008 112.037C55.8078 104.947 51.8692 98.1733 48.7669 90.6719C48.6821 90.4659 48.3912 90.6113 48.4639 90.8052C51.1058 98.5974 54.6565 106.983 59.613 113.624C59.613 118.557 59.5039 123.489 59.213 128.409C58.4375 141.557 56.1834 154.524 55.1534 167.624C55.1584 167.695 55.1884 167.763 55.2381 167.814C55.2877 167.865 55.3538 167.897 55.4248 167.904C55.4957 167.911 55.567 167.893 55.6259 167.853C55.6849 167.813 55.7278 167.754 55.7472 167.685C58.4023 154.299 60.1393 140.747 60.946 127.124Z" fill="#263238"/>
<path d="M47.0111 25.753C47.0111 25.6681 46.8414 25.753 46.8657 25.8257C49.2894 32.4667 50.6225 39.1563 52.3676 45.9912C52.3756 46.0635 52.412 46.1297 52.4688 46.1752C52.5256 46.2206 52.5982 46.2416 52.6705 46.2336C52.7428 46.2256 52.809 46.1891 52.8544 46.1323C52.8999 46.0755 52.9209 46.003 52.9129 45.9306C52.1494 39.0109 49.6893 32.1274 47.0111 25.753Z" fill="#263238"/>
<path d="M107.989 53.5761C106.393 57.4718 104.547 61.2607 102.463 64.919C98.149 72.7718 93.6409 79.9702 92.7684 89.156C92.4049 93.24 92.2716 97.336 91.0355 101.275C89.8945 104.655 88.2611 107.848 86.1881 110.751C81.5103 117.586 75.645 123.463 71.3066 130.541C66.7904 137.928 63.4541 145.974 61.4179 154.39C61.3088 154.85 60.5938 154.729 60.6908 154.269C60.6977 154.233 60.6977 154.196 60.6908 154.16C60.6833 154.145 60.6794 154.128 60.6794 154.111C60.6794 154.094 60.6833 154.078 60.6908 154.063C60 134.467 61.5633 114.714 67.5498 95.8939C70.1916 87.6188 73.3652 79.5229 77.0507 71.6569C80.25 64.8463 84.237 58.3266 89.86 53.2126C93.4955 49.9285 101.421 43.6996 106.62 46.9958C109.153 48.6318 108.971 51.1403 107.989 53.5761Z" fill="#22C55E"/>
<path d="M88.2915 98.0389C84.8333 103.724 81.029 109.192 76.9002 114.411C74.9976 116.895 73.0707 119.343 71.1802 121.828C70.2835 123.039 69.2776 124.166 68.4536 125.463C68.9747 123.403 69.4836 121.343 70.0047 119.283C72.5375 109.382 74.9612 99.3841 78.7301 89.8589C82.5895 80.6424 87.1387 71.7302 92.3391 63.1982C92.4724 62.968 92.1089 62.8104 91.9756 63.0286C87.831 69.8392 83.6259 76.6376 80.1479 83.8239C78.2198 87.8274 76.5442 91.9477 75.1309 96.1606C76.7286 87.2234 78.96 78.4112 81.8082 69.7907C81.8082 69.718 81.7233 69.6574 81.687 69.7907C77.9528 78.4713 75.6055 87.6846 74.731 97.0937C73.8827 99.6385 73.1071 102.208 72.38 104.801C69.2898 115.768 66.5752 126.845 64.0667 137.969C64.0168 130.655 64.6497 123.353 65.9572 116.156C65.9487 116.129 65.9318 116.105 65.9089 116.088C65.886 116.072 65.8583 116.062 65.8299 116.062C65.8015 116.062 65.7738 116.072 65.751 116.088C65.7281 116.105 65.7112 116.129 65.7027 116.156C63.7767 123.669 63.1334 131.454 63.8001 139.181C62.8548 143.415 61.9298 147.644 61.0249 151.869C59.0981 160.91 56.735 170.108 55.608 179.281C55.5999 179.329 55.6114 179.379 55.6398 179.419C55.6682 179.458 55.7112 179.485 55.7595 179.493C55.8077 179.501 55.8571 179.49 55.8969 179.462C55.9366 179.433 55.9635 179.39 55.9715 179.342C57.3167 174.398 58.1286 169.271 59.2193 164.266C60.3099 159.262 61.4612 154.22 62.6367 149.215C64.3333 141.944 66.1147 134.673 67.9325 127.402C69.1443 124.736 71.4953 122.373 73.2525 120.131C75.1793 117.707 77.1183 115.284 78.9967 112.739C82.5122 108.143 85.6645 103.281 88.4249 98.1965C88.5218 98.0389 88.3521 97.9056 88.2915 98.0389Z" fill="#263238"/>
<path d="M89.1297 89.6288C84.8154 95.1366 81.0793 101.074 77.9805 107.346C77.9805 107.419 78.0653 107.504 78.1138 107.431C81.8585 101.554 85.5547 95.6276 89.2993 89.7379C89.3599 89.6409 89.1903 89.5561 89.1297 89.6288Z" fill="#263238"/>
<path d="M5.65184 72.1659C8.19672 76.5407 11.093 81.788 10.0024 87.0474C9.31163 90.3679 6.87581 93.1067 6.43954 96.4635C5.45795 103.953 12.9229 108.897 18.3157 112.436C31.7793 121.27 50.2358 129.135 52.6837 147.167C52.7685 147.81 53.8956 147.652 53.7986 147.022C53.8032 146.982 53.8032 146.941 53.7986 146.901C53.7986 146.901 53.7986 146.901 53.7986 146.804C55.569 137.698 55.4824 128.329 53.5441 119.258C51.5446 109.963 47.4849 101.614 42.6981 93.446C34.6029 79.6309 26.023 65.4765 13.7712 54.8849C10.4992 51.9886 3.49475 46.6928 0.804444 53.3095C-1.82527 59.7323 2.57374 66.8338 5.65184 72.1659Z" fill="#22C55E"/>
<path d="M17.995 101.457C26.9142 111.152 41.1049 116.532 48.7881 127.354C44.4931 110.887 36.3857 95.6598 25.1207 82.9034C25.0724 82.8351 25.05 82.7518 25.0577 82.6685C25.0653 82.5853 25.1024 82.5074 25.1622 82.449C25.2221 82.3906 25.3008 82.3555 25.3843 82.3499C25.4677 82.3443 25.5504 82.3687 25.6175 82.4187C33.8506 90.3956 40.4383 99.9107 45.0071 110.425C42.8847 103.085 40.098 95.9541 36.6817 89.1202C36.6666 89.094 36.6568 89.0649 36.6529 89.0349C36.6489 89.0048 36.651 88.9744 36.6589 88.9451C36.6667 88.9158 36.6803 88.8884 36.6988 88.8644C36.7173 88.8404 36.7403 88.8202 36.7665 88.8051C36.7928 88.79 36.8218 88.7802 36.8518 88.7763C36.8819 88.7724 36.9124 88.7744 36.9416 88.7823C36.9709 88.7901 36.9983 88.8037 37.0223 88.8222C37.0464 88.8406 37.0665 88.8637 37.0816 88.89C41.3169 96.3483 44.3436 104.43 46.0493 112.836C56.1682 137.34 57.1135 166.073 54.9927 191.897C54.9927 192.261 54.3989 192.273 54.411 191.897C54.9927 171.55 54.6655 150.84 49.7818 130.965C49.6848 130.541 49.5637 130.141 49.4667 129.754C41.105 118.096 26.9869 112.703 17.9586 101.639C17.7647 101.505 17.898 101.36 17.995 101.457Z" fill="#263238"/>
<path d="M15.9449 93.1918C20.6348 97.4819 25.2399 101.881 29.9299 106.183C29.9299 106.183 29.9299 106.304 29.9299 106.268C24.6189 102.689 19.8377 98.3812 15.7267 93.4706C15.5086 93.2525 15.751 92.9858 15.9449 93.1918Z" fill="#263238"/>
<path d="M15.1786 74.5406C19.3181 81.3396 24.0076 87.7881 29.2 93.8215C29.2 93.9063 29.2 94.0154 29.0788 93.9427C23.2555 88.4144 18.4625 81.8939 14.9241 74.6861C14.8514 74.5285 15.0817 74.3831 15.1786 74.5406Z" fill="#263238"/>
<path d="M36.2695 210.112H77.3035L71.7774 154.911H42.5955L36.2695 210.112Z" fill="#455A64"/>
<path d="M41.5781 163.879H72.6869L71.7901 154.911H42.6082L41.5781 163.879Z" fill="#263238"/>
<path d="M37.5625 157.602H76.0273V148.792H37.5625V157.602Z" fill="#455A64"/>
</svg>
